<?xml version="1.0" standalone="no"?>
<!DOCTYPE svg PUBLIC "-//W3C//DTD SVG 20010904//EN"
 "http://www.w3.org/TR/2001/REC-SVG-20010904/DTD/svg10.dtd">
<svg version="1.0" xmlns="http://www.w3.org/2000/svg"
 width="92.000000pt" height="85.000000pt" viewBox="0 0 92.000000 85.000000"
 preserveAspectRatio="xMidYMid meet">
<g transform="translate(0.000000,85.000000) scale(0.100000,-0.100000)"
fill="#000000" stroke="none">
<path d="M247 703 c-8 -10 -18 -36 -22 -58 -4 -22 -13 -65 -20 -95 -8 -30 -16
-71 -19 -90 -3 -19 -10 -53 -15 -75 -6 -22 -8 -41 -6 -44 3 -2 1 -9 -4 -15
-13 -17 -33 -120 -26 -138 4 -9 13 -19 21 -22 8 -3 122 -6 253 -6 230 -1 241
0 260 19 12 12 23 36 26 54 6 38 13 72 15 72 1 0 4 11 5 25 2 14 14 66 26 115
12 50 23 101 24 115 2 14 7 39 12 55 12 41 11 69 -6 88 -12 15 -43 17 -261 17
-222 0 -248 -2 -263 -17z m513 -23 c0 -6 -22 -115 -50 -243 -27 -127 -50 -235
-50 -239 0 -5 -112 -8 -250 -8 -147 0 -250 4 -250 9 0 5 23 116 50 245 28 130
50 238 50 241 0 3 113 5 250 5 162 0 250 -4 250 -10z"/>
<path d="M275 648 c-3 -13 -23 -108 -45 -213 -23 -104 -43 -198 -46 -207 -5
-17 10 -18 225 -18 l231 0 4 23 c3 12 12 51 21 87 8 36 26 121 40 190 14 69
28 133 31 143 5 16 -10 17 -225 17 l-231 0 -5 -22z m423 -32 c-1 -12 -7 -23
-13 -24 -5 -1 -21 -3 -34 -5 -13 -2 -29 -11 -36 -21 -11 -14 -15 -15 -22 -4
-8 13 -47 38 -58 38 -4 0 -3 -4 0 -10 3 -5 0 -7 -9 -4 -8 3 -24 -4 -35 -15
-20 -20 -22 -20 -39 -3 -19 19 -88 39 -78 24 3 -5 -5 -8 -17 -7 -23 2 -40 -17
-71 -78 -11 -20 -21 -35 -24 -32 -3 2 0 11 7 18 6 8 14 34 17 58 7 61 9 73 16
84 4 6 81 9 202 7 l196 -3 -2 -23z m-254 -117 c3 -34 6 -79 6 -100 0 -73 16
-47 34 57 l19 104 32 0 c31 0 34 -4 57 -61 l25 -62 7 62 7 61 36 0 c29 0 35
-3 31 -18 -3 -10 -13 -60 -24 -110 -18 -90 -19 -92 -47 -92 -25 0 -31 7 -54
58 -28 61 -28 61 -38 -10 l-6 -48 -70 0 c-62 0 -69 2 -69 20 0 16 -7 20 -35
20 -24 0 -37 -6 -45 -20 -8 -14 -21 -20 -46 -20 l-35 0 58 110 58 110 46 0 46
0 7 -61z m-79 -158 c-11 -18 31 -30 96 -27 88 4 91 5 85 15 -3 5 1 11 9 15 8
3 17 0 21 -6 5 -7 2 -8 -6 -3 -9 5 -11 4 -6 -3 4 -7 15 -12 24 -12 32 0 43
-15 36 -48 l-7 -32 -203 0 -204 0 10 26 c6 14 8 30 4 35 -3 5 13 9 35 9 22 0
46 6 53 14 8 8 23 16 34 19 10 2 20 5 22 6 2 0 1 -3 -3 -8z"/>
<path d="M359 461 c-16 -37 -16 -38 2 -34 14 4 19 15 19 39 0 19 -1 34 -2 34
-2 0 -10 -18 -19 -39z"/>
</g>
</svg>
